<?xml version="1.0" encoding="iso-8859-1"?>
<!-- Generator: Adobe Illustrator 19.0.0, SVG Export Plug-In . SVG Version: 6.00 Build 0)  -->
<svg version="1.1" id="Capa_1" xmlns="http://www.w3.org/2000/svg" xmlns:xlink="http://www.w3.org/1999/xlink" x="0px" y="0px"
	 viewBox="0 0 464 464" style="enable-background:new 0 0 464 464;" xml:space="preserve">
<path style="fill:#E1B494;" d="M152,256h64v64h-64V256z"/>
<path style="fill:#F2CBA7;" d="M272,88v96c0,48.601-39.399,88-88,88l0,0c-48.601,0-88-39.399-88-88V88H272z"/>
<g>
	<path style="fill:#505968;" d="M168,184h-16v-8c0-4.418-3.582-8-8-8s-8,3.582-8,8v8h-16v-8c0-13.255,10.745-24,24-24
		s24,10.745,24,24V184z"/>
	<path style="fill:#505968;" d="M248,184h-16v-8c0-4.418-3.582-8-8-8s-8,3.582-8,8v8h-16v-8c0-13.255,10.745-24,24-24
		c13.255,0,24,10.745,24,24V184z"/>
</g>
<path style="fill:#EE2849;" d="M160,208h48v8c0,13.255-10.745,24-24,24s-24-10.745-24-24V208z"/>
<g>
	<path style="fill:#E1B494;" d="M96,160H80c-8.837,0-16,7.163-16,16s7.163,16,16,16h16V160z"/>
	<path style="fill:#E1B494;" d="M272,160h16c8.837,0,16,7.163,16,16s-7.163,16-16,16h-16V160z"/>
</g>
<path style="fill:#FAA41B;" d="M96,96h176v-8c0-48.601-39.399-88-88-88H48v48C48,74.51,69.49,96,96,96z"/>
<path style="fill:#F08015;" d="M272,136h-24c-22.091,0-40-17.909-40-40h64V136z"/>
<path style="fill:#3FD100;" d="M152,288h-48c-35.346,0-64,28.654-64,64v112h288V352c0-35.346-28.654-64-64-64h-48
	c0,17.673-14.327,32-32,32S152,305.673,152,288z"/>
<circle style="fill:#1598FC;" cx="328" cy="368" r="96"/>
<path style="fill:#EFF2FA;" d="M312,320h32v32h32v32h-32v32h-32v-32h-32v-32h32V320z"/>
<g>
</g>
<g>
</g>
<g>
</g>
<g>
</g>
<g>
</g>
<g>
</g>
<g>
</g>
<g>
</g>
<g>
</g>
<g>
</g>
<g>
</g>
<g>
</g>
<g>
</g>
<g>
</g>
<g>
</g>
</svg>
