<svg height="512" viewBox="0 0 512 512" width="512" xmlns="http://www.w3.org/2000/svg"><g id="flat"><path d="m376 488-96-48h-48l-96 48h72l48-24 48 24z" fill="#645960"/><path d="m240 384h32v64h-32z" fill="#645960"/><path d="m240 424h32v48h-32z" fill="#f55441"/><path d="m24 152v256l24.8-3.1q3.6-.45 7.2-.884l200-36.016 200 36.016q3.6.433 7.2.884l24.8 3.1v-256l-24.8 3.1a1670.376 1670.376 0 0 1 -207.2 12.9 1670.376 1670.376 0 0 1 -207.2-12.9z" fill="#315a70"/><path d="m56 72v332.016a1670.5 1670.5 0 0 1 200-12.016 1670.5 1670.5 0 0 1 200 12.016v-332.016z" fill="#e6e6e6"/><path d="m56 56h400v24h-400z" fill="#ccc"/><path d="m368 112h-208a64 64 0 0 0 -64 64v80a64 64 0 0 0 64 64v48l48-48h160a64 64 0 0 0 64-64v-80a64 64 0 0 0 -64-64z" fill="#ccc"/><path d="m56 72v-32a16 16 0 0 1 16-16h368a16 16 0 0 1 16 16v32z" fill="#645960"/><rect fill="#e11919" height="16" rx="8" width="16" x="72" y="40"/><path d="m152 104h208a64 64 0 0 1 64 64v80a64 64 0 0 1 -64 64h-160l-48 48v-48a64 64 0 0 1 -64-64v-80a64 64 0 0 1 64-64z" fill="#6ad3d3"/><path d="m360 104h-32l-112 112-16 48 48-16 138.33-138.33a63.739 63.739 0 0 0 -26.33-5.67z" fill="#5d9b9c"/><path d="m136 152h240v16h-240z" fill="#315a70"/><path d="m264 168h64l16-16h-64z" fill="#203b47"/><path d="m136 200h240v16h-240z" fill="#315a70"/><path d="m296 200h-64l-16 16h64z" fill="#203b47"/><path d="m136 248h56v16h-56z" fill="#315a70"/><path d="m208 208-16 48 48-16 144-144-32-32z" fill="#f55441"/><path d="m384 96 17.373-17.373a22.627 22.627 0 0 0 6.627-16 22.628 22.628 0 0 0 -22.627-22.627 22.627 22.627 0 0 0 -16 6.627l-17.373 17.373z" fill="#ffaf00"/><path d="m240 208v-16h-16l-16 16-16 48 48-16 16-16v-16z" fill="#ecc19c"/></g></svg>