<?xml version="1.0" encoding="iso-8859-1"?>
<!-- Generator: Adobe Illustrator 19.0.0, SVG Export Plug-In . SVG Version: 6.00 Build 0)  -->
<svg version="1.1" id="Capa_1" xmlns="http://www.w3.org/2000/svg" xmlns:xlink="http://www.w3.org/1999/xlink" x="0px" y="0px"
	 viewBox="0 0 464 464" style="enable-background:new 0 0 464 464;" xml:space="preserve">
<path style="fill:#EFF2FA;" d="M48,0h368v464H48V0z"/>
<g>
	<path style="fill:#505968;" d="M368,56H176c-4.418,0-8-3.582-8-8s3.582-8,8-8h192c4.418,0,8,3.582,8,8S372.418,56,368,56z"/>
	<path style="fill:#505968;" d="M224,88h-48c-4.418,0-8-3.582-8-8s3.582-8,8-8h48c4.418,0,8,3.582,8,8S228.418,88,224,88z"/>
	<path style="fill:#505968;" d="M280,88h-24c-4.418,0-8-3.582-8-8s3.582-8,8-8h24c4.418,0,8,3.582,8,8S284.418,88,280,88z"/>
</g>
<path style="fill:#1072BD;" d="M80,128h304v176H80V128z"/>
<path style="fill:#EFF2FA;" d="M192,160v112l96-56L192,160z"/>
<circle style="fill:#FAA41B;" cx="112" cy="64" r="32"/>
<circle style="fill:#EE2849;" cx="104" cy="352" r="16"/>
<circle style="fill:#75E6FF;" cx="104" cy="416" r="16"/>
<g>
	<path style="fill:#505968;" d="M216,360h-64c-4.418,0-8-3.582-8-8s3.582-8,8-8h64c4.418,0,8,3.582,8,8S220.418,360,216,360z"/>
	<path style="fill:#505968;" d="M360,360H248c-4.418,0-8-3.582-8-8s3.582-8,8-8h112c4.418,0,8,3.582,8,8S364.418,360,360,360z"/>
	<path style="fill:#505968;" d="M200,424h-48c-4.418,0-8-3.582-8-8s3.582-8,8-8h48c4.418,0,8,3.582,8,8S204.418,424,200,424z"/>
	<path style="fill:#505968;" d="M328,424h-96c-4.418,0-8-3.582-8-8s3.582-8,8-8h96c4.418,0,8,3.582,8,8S332.418,424,328,424z"/>
</g>
<g>
</g>
<g>
</g>
<g>
</g>
<g>
</g>
<g>
</g>
<g>
</g>
<g>
</g>
<g>
</g>
<g>
</g>
<g>
</g>
<g>
</g>
<g>
</g>
<g>
</g>
<g>
</g>
<g>
</g>
</svg>
